<?xml version="1.0" encoding="utf-8"?>
<!-- Generator: Adobe Illustrator 25.4.1, SVG Export Plug-In . SVG Version: 6.00 Build 0)  -->
<svg version="1.1" id="Layer_1" xmlns="http://www.w3.org/2000/svg" xmlns:xlink="http://www.w3.org/1999/xlink" x="0px" y="0px"
	 viewBox="0 0 100 65" style="enable-background:new 0 0 100 65;" xml:space="preserve">
<style type="text/css">
	.st0{fill:#FFFFFF;}
	.st1{fill:#F9B417;}
	.st2{opacity:0.25;fill:#E9A323;enable-background:new    ;}
</style>
<g>
	<g>
		<g>
			<g id="Layer_2_00000104677137285858048080000012603664662774487195_">
				<g id="Layer_1-2_00000015318109415560361950000000735136360268987780_">
					<path class="st0" d="M74.9,0.2C61.9,0.2,51.2,10.9,51.2,24s10.7,23.7,23.8,23.7s23.8-10.6,23.8-23.8S88.1,0.2,74.9,0.2z
						 M74.9,38.3c-8,0-14.4-6.5-14.4-14.4S67,9.5,74.9,9.5S89.4,16,89.4,23.9S83,38.3,74.9,38.3L74.9,38.3z"/>
					<path class="st1" d="M47.8,21.3v24.8h-7.4V42c-7.9,6.8-19.2,7.7-28.1,2.1c0.9,0.1,1.8,0.2,2.7,0.2c7.2,0,13.6-3.1,18-8.2
						c1.7-1.9,2.9-4.1,3.9-6.4H23.9v-8.2L47.8,21.3L47.8,21.3z"/>
					<path class="st0" d="M47.7,16.8H37.6c-2.8-5-8.3-8-14.1-7.4c-6.7,0.7-12.1,6.1-12.9,12.7C9.8,29.5,14.6,36,21.2,37.8
						c-3.7,2.3-8,3.4-12.3,3.4l0,0C2.9,35.7-0.3,27,2.1,17.7C4.7,7.3,14.4,0.2,25.1,0.2l0,0c0.9,0,1.8,0.1,2.7,0.2
						C37.2,1.4,45,8,47.7,16.8z"/>
					<polygon class="st2" points="46.5,21.5 46.8,22.2 47.5,22.3 47.1,22.8 47.2,23.6 46.5,23.3 45.8,23.6 45.9,22.8 45.3,22.3 
						46.1,22.2 					"/>
					<path class="st1" d="M75,1.4c12.4,0,22.5,10.1,22.5,22.5S87.4,46.4,75,46.4s-22.5-10-22.5-22.5S62.6,1.4,75,1.4 M75,1.1
						c-12.6,0-22.9,10.2-22.9,22.8s10.2,22.8,22.8,22.8s22.8-10.2,22.8-22.8S87.6,1.1,75,1.1L75,1.1z"/>
				</g>
			</g>
		</g>
	</g>
	<g>
		<path class="st0" d="M26.6,54.2c0.7-0.1,1.7-0.2,2.8-0.2c1.5,0,2.6,0.3,3.2,0.9c0.6,0.5,1,1.3,1,2.2c0,1-0.3,1.7-0.9,2.3
			c-0.8,0.8-2.1,1.2-3.4,1.2c-0.4,0-0.9,0-1.2-0.1v4.2h-1.5L26.6,54.2L26.6,54.2z M28.1,59.3c0.3,0.1,0.7,0.1,1.2,0.1
			c1.8,0,2.8-0.8,2.8-2.3c0-1.4-1.1-2.1-2.7-2.1c-0.7,0-1.2,0-1.4,0.1V59.3z"/>
		<path class="st0" d="M41.1,54.1v6.2c0,2.4,1.2,3.3,2.7,3.3c1.7,0,2.7-1,2.7-3.3v-6.2H48v6.1c0,3.2-1.9,4.5-4.3,4.5
			c-2.4,0-4.1-1.2-4.1-4.4v-6.2C39.6,54.1,41.1,54.1,41.1,54.1z"/>
		<path class="st0" d="M54.6,64.6V54.1h1.6l3.6,5.3c0.9,1.2,1.5,2.4,2.1,3.4l0,0c-0.1-1.6-0.1-2.7-0.1-4.4v-4.3h1.4v10.4h-1.5
			L58,59.3c-0.8-1.2-1.6-2.4-2.2-3.4h-0.1c0.1,1.3,0.1,2.6,0.1,4.3v4.4H54.6z"/>
		<path class="st0" d="M71.9,55.2h-3.4V54h8.4v1.2h-3.4v9.3H72L71.9,55.2L71.9,55.2z"/>
	</g>
	<rect x="16.6" y="59.4" class="st0" width="6.7" height="1.1"/>
	<rect x="76.7" y="59.4" class="st0" width="6.7" height="1.1"/>
</g>
</svg>
